PathFileType	3	(X/Y/Z)	D:\Vicon Database\Healthy Subjects\S0040\Jan. 30, 2020\Force Plate Walk 3.trc
DataRate	CameraRate	NumFrames	NumMarkers	Units	OrigDataRate	OrigDataStartFrame	OrigNumFrames
100.0	100.0	4	53	mm	100.0	479	290	
Frame#	Time	right_foot_cluster2			right_foot_cluster3			sternum_cluster1			sternum_cluster2			sternum_cluster3			left_asis			right_asis			left_psis			right_psis			sacrum_cluster1			sacrum_cluster2			sacrum_cluster3			left_lat_femoral_epicondyle			left_anterior_thigh15			left_anterior_thigh25			left_anterior_thigh50			left_lateral_thigh25			left_lateral_thigh50			left_thigh_cluster1			left_thigh_cluster2			left_thigh_cluster3			left_fibular_head			left_tibial_tuberosity			left_anterior_shank30			left_lateral_malleolus			left_shank_cluster1			left_shank_cluster2			left_shank_cluster3			left_heel			left_metatarsal2			left_foot_cluster1			left_foot_cluster2			left_foot_cluster3			right_lat_femoral_epicondyle			right_anterior_thigh15			right_anterior_thigh25			right_anterior_thigh50			right_lateral_thigh25			right_lateral_thigh50			right_thigh_cluster1			right_thigh_cluster2			right_thigh_cluster3			right_fibular_head			right_tibial_tuberosity			right_lateral_distal_shank			right_anterior_shank30			right_lateral_malleolus			right_shank_cluster1			right_shank_cluster2			right_shank_cluster3			right_heel			right_metatarsal2			right_foot_cluster1			
		X1	Y1	Z1	X2	Y2	Z2	X3	Y3	Z3	X4	Y4	Z4	X5	Y5	Z5	X6	Y6	Z6	X7	Y7	Z7	X8	Y8	Z8	X9	Y9	Z9	X10	Y10	Z10	X11	Y11	Z11	X12	Y12	Z12	X13	Y13	Z13	X14	Y14	Z14	X15	Y15	Z15	X16	Y16	Z16	X17	Y17	Z17	X18	Y18	Z18	X19	Y19	Z19	X20	Y20	Z20	X21	Y21	Z21	X22	Y22	Z22	X23	Y23	Z23	X24	Y24	Z24	X25	Y25	Z25	X26	Y26	Z26	X27	Y27	Z27	X28	Y28	Z28	X29	Y29	Z29	X30	Y30	Z30	X31	Y31	Z31	X32	Y32	Z32	X33	Y33	Z33	X34	Y34	Z34	X35	Y35	Z35	X36	Y36	Z36	X37	Y37	Z37	X38	Y38	Z38	X39	Y39	Z39	X40	Y40	Z40	X41	Y41	Z41	X42	Y42	Z42	X43	Y43	Z43	X44	Y44	Z44	X45	Y45	Z45	X46	Y46	Z46	X47	Y47	Z47	X48	Y48	Z48	X49	Y49	Z49	X50	Y50	Z50	X51	Y51	Z51	X52	Y52	Z52	X53	Y53	Z53	
479	4.78	649.17383	113.13377	-205.35796	647.92743	115.50341	-242.89011	924.54462	1413.0963	-170.59238	913.21045	1385.1653	-162.38463	915.98749	1387.637	-200.22176	934.0238	1036.2727	-41.819874	927.82751	1050.3823	-292.22934	1099.568	1051.9012	-99.203461	1100.2753	1053.2246	-217.6209	1110.8855	1109.5007	-164.00908	1114.7493	1083.5021	-176.80725	1118.4438	1077.9742	-136.87878	1109.5028	529.29437	-20.023857	985.19177	572.16663	-59.051083	946.93591	655.62805	-42.923435	921.01062	796.09766	-28.580124	1071.1238	674.22021	-2.2350385	1028.0886	813.47925	23.342756	1044.8943	772.07642	27.20384	1053.6232	744.2373	24.566256	1016.0729	745.45648	31.516493	1146.4731	458.67688	-11.514158	1107.5072	414.02222	-64.48056	1285.3114	237.23273	-81.470078	1398.0554	181.42888	-57.460522	1138.9053	371.332	-92.126877	1154.105	348.45422	-83.70874	1162.5945	356.29489	-120.69343	1474.2515	209.29413	-99.512276	1323.3622	54.822418	-92.704491	1326.4299	126.66096	-85.733673	1323.4237	97.669182	-75.288292	1314.6285	99.02552	-112.64225	816.52319	529.7168	-293.80746	769.98785	641.10675	-236.09282	784.55902	719.88873	-237.37561	830.78546	837.53821	-250.32079	870.71381	676.49677	-324.31958	922.83704	814.01917	-356.67496	910.01776	761.86786	-361.38925	890.35504	741.45581	-356.18323	926.44257	726.57013	-351.85864	808.16455	463.12842	-295.04959	754.38544	467.13373	-247.11798	774.01776	195.64297	-274.77466	733.1059	218.46077	-227.02376	758.64319	94.77877	-259.44968	757.7691	400.67236	-190.62489	759.39172	372.03796	-183.24394	733.18109	373.76657	-209.68979	829.52264	57.253387	-223.52075	613.79193	84.96273	-214.06015	673.97821	124.2912	-215.56076
480	4.79	646.81104	110.16526	-203.92601	645.73389	112.78562	-241.52373	908.67059	1413.6185	-171.61794	897.21777	1385.7911	-163.30515	899.8053	1388.2018	-201.17857	917.32922	1036.3961	-43.045708	910.76685	1051.225	-293.12845	1082.7676	1051.3547	-100.22717	1083.5378	1053.8018	-218.65799	1093.8234	1108.8262	-164.95515	1098.9862	1083.6943	-177.23575	1101.4128	1077.8783	-137.99916	1082.8303	526.24347	-18.22016	958.05798	570.39734	-54.681175	922.57739	655.06708	-40.692432	900.55603	796.51471	-29.515474	1047.4108	671.43127	-1.8939663	1007.5476	811.71094	21.934711	1023.4505	770.22723	26.020546	1031.7041	742.17584	23.897186	994.35028	744.29449	30.792242	1121.1637	457.47153	-9.3939781	1081.9044	410.67993	-60.04504	1265.8867	240.2236	-79.360909	1380.3615	189.32576	-56.615547	1114.0474	368.55524	-88.203636	1129.964	346.53156	-79.669983	1138.229	353.96692	-117.4869	1452.1051	223.99144	-99.776283	1317.8656	55.538269	-92.12571	1313.5253	127.57519	-83.4907	1313.4547	98.5961	-74.110474	1304.6737	98.916222	-111.55067	801.69995	529.99341	-293.84845	755.06372	641.08942	-234.52351	769.10681	720.01306	-237.06247	813.8595	838.20624	-251.29756	854.22162	677.16296	-325.73938	905.5882	815.10034	-357.75879	892.85864	762.81238	-362.556	873.41547	742.30927	-356.9809	909.65955	727.75659	-353.34512	793.68958	463.08734	-295.00644	741.19623	466.19046	-245.10522	766.69421	194.739	-273.81238	726.87042	216.50723	-224.60399	756.61591	94.290573	-258.73883	747.84753	399.37683	-189.34348	750.36359	370.80161	-181.95885	723.60266	371.82724	-207.8808	828.76453	57.699562	-223.34299	612.0799	81.059471	-212.95543	671.54291	121.82471	-214.06595
481	4.8	645.78632	108.05554	-203.17654	644.47046	111.06356	-240.51721	892.64105	1414.3372	-172.49469	881.21216	1386.476	-164.1458	883.54065	1388.9152	-202.01695	900.95837	1036.4932	-44.206551	893.99219	1052.4344	-294.07974	1066.3226	1050.7295	-101.0866	1066.715	1053.9176	-219.66736	1077.6012	1109.257	-165.41559	1082.9397	1083.9467	-177.65974	1084.812	1077.5576	-138.68784	1056.04	523.20337	-16.452793	931.49786	568.79456	-49.843002	898.4826	654.81012	-38.085445	880.14905	797.16827	-30.32914	1023.749	668.46143	-1.4573286	986.97064	809.88141	20.747417	1002.1061	768.18689	25.237703	1009.4671	740.17645	23.435865	972.2699	743.16968	30.772804	1095.2664	456.19788	-7.2886581	1055.5355	407.70642	-55.370872	1243.5309	244.71292	-75.900276	1361.8821	197.33417	-55.67144	1088.0863	365.68408	-83.83934	1105.0315	344.73584	-75.2686	1112.4432	351.50272	-113.73235	1427.9883	239.22528	-99.88623	1310.4128	57.59454	-90.965477	1299.619	130.10226	-81.065834	1302.8314	101.15734	-72.119278	1292.854	100.99017	-109.42969	786.20294	530.74176	-294.23969	740.4306	641.59705	-233.29312	754.07739	720.71545	-236.7522	797.16241	839.38367	-252.27007	837.60583	678.66687	-326.72879	888.46075	816.78741	-358.99368	875.81348	764.3855	-363.78116	856.69299	743.79822	-358.00647	892.70117	729.37128	-355.18137	779.41724	463.36206	-294.87186	728.79419	465.46497	-243.35855	760.8028	194.40013	-273.29272	721.53467	215.1096	-222.69246	754.96863	94.165604	-258.08795	738.95227	398.46729	-188.38695	742.5094	369.86121	-181.0943	715.31824	370.11432	-206.42084	828.23737	58.15242	-223.16412	611.11505	78.469574	-212.26195	670.1756	120.12027	-212.968
482	4.81	644.74506	106.36129	-202.86888	643.43896	109.56836	-240.14313	876.69226	1415.0917	-173.34036	865.29126	1387.2125	-164.91	867.38281	1389.6552	-202.79027	884.93567	1036.5791	-45.278728	877.70715	1053.8523	-295.02472	1050.2748	1050.3082	-101.28529	1050.7531	1054.5615	-220.00952	1062.5659	1109.6101	-165.07976	1067.9335	1084.5615	-177.50319	1068.7998	1077.4053	-138.78786	1029.0502	520.42499	-14.686007	905.42499	567.89819	-45.416153	875.09625	654.98175	-35.421234	860.04462	798.15253	-30.972393	999.94739	665.73236	-0.87921983	966.73065	808.12695	19.924334	980.88452	766.43121	24.84668	987.66229	737.97388	23.332397	950.66357	742.08472	30.380135	1068.3029	455.18552	-5.210948	1026.1746	406.49838	-49.781414	1223.6311	247.60497	-74.228317	1341.7339	205.54663	-54.586536	1061.7448	363.11292	-79.687477	1081.3168	343.02875	-71.731216	1086.2279	349.10275	-109.76601	1401.6254	253.98621	-99.975807	1302.1292	61.05666	-89.475975	1284.8202	133.49696	-77.997253	1291.6511	104.16721	-69.73954	1279.3524	104.18761	-106.49224	771.03973	531.4248	-294.88654	726.32831	642.29016	-232.47549	739.53094	721.47693	-236.78221	781.28558	840.81323	-252.95604	821.35205	680.42542	-327.74265	871.91028	818.83801	-360.23471	859.17029	766.32178	-364.9668	840.40381	745.36005	-358.86432	876.26843	731.10162	-357.06531	766.66797	463.48599	-295.20425	717.31097	464.82455	-242.46988	756.5437	194.73236	-272.99493	716.94659	214.14751	-221.87349	753.81531	94.044945	-257.8732	730.61121	397.92737	-188.00484	735.28766	369.22702	-180.87064	707.55035	368.86902	-205.64406	827.95782	58.503181	-223.77582	610.30188	76.325111	-212.0778	668.97858	118.73106	-212.56216
